<svg xmlns="http://www.w3.org/2000/svg" viewBox="0 0 512 512" width="512" height="512">
  <defs>
    <linearGradient id="bg" x1="0" y1="0" x2="0" y2="1">
      <stop offset="0" stop-color="#FBF4E4"/>
      <stop offset="1" stop-color="#EFE3CC"/>
    </linearGradient>
    <linearGradient id="coin" x1="0" y1="0" x2="0" y2="1">
      <stop offset="0" stop-color="#D9942F"/>
      <stop offset="1" stop-color="#C0791F"/>
    </linearGradient>
    <clipPath id="lh" clipPathUnits="userSpaceOnUse"><rect x="0" y="0" width="12" height="24"/></clipPath>
    <clipPath id="rh" clipPathUnits="userSpaceOnUse"><rect x="12" y="0" width="12" height="24"/></clipPath>
  </defs>

  <rect width="512" height="512" rx="116" fill="url(#bg)"/>
  <circle cx="256" cy="272" r="152" fill="url(#coin)"/>
  <circle cx="256" cy="272" r="152" fill="none" stroke="#FFFFFF" stroke-opacity="0.18" stroke-width="6"/>

  <g transform="translate(148,170) scale(9)">
    <path d="M12 21.35l-1.45-1.32C5.4 15.36 2 12.28 2 8.5 2 5.42 4.42 3 7.5 3c1.74 0 3.41.81 4.5 2.09C13.09 3.81 14.76 3 16.5 3 19.58 3 22 5.42 22 8.5c0 3.78-3.4 6.86-8.55 11.54L12 21.35z"
      fill="#D65B82" clip-path="url(#lh)"/>
    <path d="M12 21.35l-1.45-1.32C5.4 15.36 2 12.28 2 8.5 2 5.42 4.42 3 7.5 3c1.74 0 3.41.81 4.5 2.09C13.09 3.81 14.76 3 16.5 3 19.58 3 22 5.42 22 8.5c0 3.78-3.4 6.86-8.55 11.54L12 21.35z"
      fill="#3D74B0" clip-path="url(#rh)"/>
    <line x1="12" y1="4.2" x2="12" y2="20.4" stroke="#FBF4E4" stroke-width="0.5" stroke-opacity="0.5"/>
  </g>
</svg>
